<svg width="24" height="24" viewBox="0 0 24 24" fill="none" xmlns="http://www.w3.org/2000/svg">
<path d="M12 0C9.62663 0 7.30655 0.703788 5.33316 2.02236C3.35977 3.34094 1.8217 5.21509 0.913451 7.4078C0.00519961 9.60051 -0.232441 12.0133 0.230582 14.3411C0.693604 16.6689 1.83649 18.807 3.51472 20.4853C5.19295 22.1635 7.33115 23.3064 9.65892 23.7694C11.9867 24.2324 14.3995 23.9948 16.5922 23.0866C18.7849 22.1783 20.6591 20.6402 21.9776 18.6668C23.2962 16.6934 24 14.3734 24 12C23.9965 8.81848 22.7311 5.76827 20.4814 3.5186C18.2317 1.26892 15.1815 0.00351355 12 0ZM12 22.3407C9.9548 22.3407 7.95553 21.7342 6.25501 20.598C4.55449 19.4617 3.2291 17.8467 2.44644 15.9572C1.66377 14.0677 1.45899 11.9885 1.85799 9.98263C2.25699 7.97672 3.24185 6.13419 4.68802 4.68801C6.13419 3.24184 7.97673 2.25698 9.98263 1.85799C11.9885 1.45899 14.0677 1.66377 15.9572 2.44643C17.8467 3.22909 19.4617 4.55449 20.598 6.25501C21.7342 7.95553 22.3407 9.9548 22.3407 12C22.3372 14.7414 21.2466 17.3696 19.3081 19.3081C17.3696 21.2466 14.7415 22.3372 12 22.3407ZM17.1305 7.80531L12.9358 12L17.1305 16.1947L16.1947 17.1305L12 12.9358L7.80531 17.1305L6.86947 16.1947L11.0642 12L6.86947 7.80531L7.80531 6.86947L12 11.0642L16.1947 6.86947L17.1305 7.80531Z" fill="#92979B"/>
</svg>
