<?xml version="1.0" encoding="iso-8859-1"?>
<!-- Generator: Adobe Illustrator 19.0.0, SVG Export Plug-In . SVG Version: 6.00 Build 0)  -->
<svg xmlns="http://www.w3.org/2000/svg" xmlns:xlink="http://www.w3.org/1999/xlink" version="1.1" id="Layer_1" x="0px" y="0px" viewBox="0 0 512 512" style="enable-background:new 0 0 512 512;" xml:space="preserve" width="512" height="512">
<g>
	<circle style="fill:#FDBF00;" cx="256" cy="256" r="256"/>
	<path style="fill:#FF9100;" d="M512,256c0-11.424-0.759-22.669-2.209-33.697l-97.184-97.184l-19.245,19.245l-49.786-49.786   l-15.249,4.249l-21.439,32.439l-37.063-37.063l-15.936,5.936l-20.772,30.772L196.2,93.994l-15.603,3.603l-33.894,45.895   l105.463,105.464L99.613,401.508l105.408,105.408C221.496,510.246,238.543,512,256,512C397.385,512,512,397.385,512,256z"/>
	<g>
		<path style="fill:#FF641A;" d="M412.597,125.105v73.405c0,0-23,9.604-46.306,18.963H126.44L99.403,198.51v-73.405h56.216    l12.111-10.277l6.422,10.277h54.871l8.992-9.543l9.542,9.543h54.871l9.726-10.644l8.808,10.644H412.597z"/>
		<path style="fill:#F03800;" d="M412.597,125.105v73.405c0,0-23,9.604-46.306,18.963H256v-92.368h46.429l9.726-10.644l8.808,10.644    H412.597z"/>
		<g>
			<path style="fill:#3E5959;" d="M210.122,134.281c0,26.242-11.929,45.878-27.527,45.878v-18.351c2.202,0,9.176-9.727,9.176-27.527     c0-3.303-0.184-6.422-0.734-9.176c-1.652-11.929-6.607-18.351-8.442-18.351c-1.835,0-6.79,6.422-8.442,18.351h-18.534     c2.385-21.471,13.212-36.702,26.976-36.702c13.763,0,24.591,15.232,26.976,36.702     C209.938,128.041,210.122,131.162,210.122,134.281z"/>
		</g>
		<g>
			<path style="fill:#3E5959;" d="M283.527,134.281c0,26.242-11.929,45.878-27.527,45.878v-18.351c2.202,0,9.176-9.727,9.176-27.527     c0-3.303-0.184-6.422-0.734-9.176c-1.652-11.929-6.607-18.351-8.442-18.351c-1.835,0-6.79,6.422-8.442,18.351h-18.534     c2.385-21.471,13.212-36.702,26.976-36.702c13.763,0,24.591,15.232,26.976,36.702     C283.343,128.041,283.527,131.162,283.527,134.281z"/>
		</g>
		<path style="fill:#293939;" d="M264.442,125.105c0.55,2.753,0.734,5.873,0.734,9.176c0,17.8-6.974,27.527-9.176,27.527v18.351    c15.598,0,27.527-19.636,27.527-45.878c0-3.119-0.184-6.24-0.551-9.176c-2.385-21.471-13.212-36.702-26.976-36.702v18.351    C257.835,106.754,262.79,113.177,264.442,125.105z"/>
		<g>
			<path style="fill:#293939;" d="M356.932,134.281c0,26.242-11.929,45.878-27.527,45.878v-18.351c2.202,0,9.176-9.727,9.176-27.527     c0-3.303-0.184-6.422-0.734-9.176c-1.652-11.929-6.607-18.351-8.442-18.351c-1.835,0-6.79,6.422-8.442,18.351h-18.534     c2.385-21.471,13.212-36.702,26.976-36.702c13.763,0,24.591,15.232,26.976,36.702     C356.748,128.041,356.932,131.162,356.932,134.281z"/>
		</g>
		<g>
			<path style="fill:#DAE9FA;" d="M99.403,198.51v203.087h313.194V198.51H99.403z"/>
		</g>
		<rect x="256" y="198.51" style="fill:#AFC5F4;" width="156.597" height="203.087"/>
		<g>
			<g>
				<g>
					<path style="fill:#00AB94;" d="M182.595,291.49c-15.179,0-27.527-12.348-27.527-27.527c0-15.179,12.348-27.527,27.527-27.527       c15.179,0,27.527,12.348,27.527,27.527C210.122,279.142,197.774,291.49,182.595,291.49z"/>
				</g>
				<g>
					<path style="fill:#00AB94;" d="M228.473,364.895h-91.756v-27.527c0-25.296,20.582-45.878,45.878-45.878       s45.878,20.582,45.878,45.878V364.895z"/>
				</g>
			</g>
		</g>
		<g>
			<rect x="265.176" y="236.436" style="fill:#95A8CE;" width="110.107" height="18.351"/>
		</g>
		<g>
			<rect x="265.176" y="273.139" style="fill:#95A8CE;" width="110.107" height="18.351"/>
		</g>
		<g>
			<rect x="265.176" y="309.841" style="fill:#95A8CE;" width="110.107" height="18.351"/>
		</g>
		<g>
			<rect x="265.176" y="346.543" style="fill:#95A8CE;" width="110.107" height="18.351"/>
		</g>
	</g>
</g>















</svg>
