<svg height="512pt" viewBox="0 0 512 512" width="512pt" xmlns="http://www.w3.org/2000/svg"><path d="m392 15v377l-121 120h-256c-8.402344 0-15-6.597656-15-15v-482c0-8.402344 6.597656-15 15-15h362c8.402344 0 15 6.597656 15 15zm0 0" fill="#ede9e8"/><path d="m392 15v377l-121 120h-75v-512h181c8.402344 0 15 6.597656 15 15zm0 0" fill="#dfd7d5"/><path d="m331 76v113.699219l-135 59.101562-1.800781.898438-133.199219-60v-113.699219c0-8.402344 6.597656-15 15-15h240c8.402344 0 15 6.597656 15 15zm0 0" fill="#a8ebfa"/><path d="m331 76v113.699219l-135 59.101562v-187.800781h120c8.402344 0 15 6.597656 15 15zm0 0" fill="#76e2f8"/><path d="m512 15v46l-45 29.398438-.902344.601562-44.097656-30v-46c0-8.402344 6.597656-15 15-15h60c8.402344 0 15 6.597656 15 15zm0 0" fill="#725d57"/><path d="m512 15v46l-45 29.398438v-90.398438h30c8.402344 0 15 6.597656 15 15zm0 0" fill="#53433f"/><path d="m482 467v30c0 8.402344-6.597656 15-15 15s-15-6.597656-15-15v-30c0-8.402344 6.597656-15 15-15s15 6.597656 15 15zm0 0" fill="#725d57"/><path d="m482 467v30c0 8.402344-6.597656 15-15 15v-60c8.402344 0 15 6.597656 15 15zm0 0" fill="#53433f"/><path d="m512 392v15c0 2.402344-.601562 4.5-1.5 6.597656l-30 60c-2.699219 5.101563-7.800781 8.402344-13.5 8.402344s-10.800781-3.300781-13.5-8.402344l-30-60c-.898438-2.097656-1.5-4.199218-1.5-6.597656v-15l43.199219-30 1.800781 1.199219zm0 0" fill="#ffcebf"/><path d="m467 363.199219 45 28.800781v15c0 2.402344-.601562 4.5-1.5 6.597656l-30 60c-2.699219 5.101563-7.800781 8.402344-13.5 8.402344zm0 0" fill="#ffa78f"/><path d="m296.605469 507.605469 91-90c2.8125-2.8125 4.394531-6.621094 4.394531-10.605469v-15h-106c-8.285156 0-15 6.714844-15 15v105h15c3.984375 0 7.792969-1.582031 10.605469-4.394531zm0 0" fill="#c4b3af"/><path d="m196 106c-16.5 0-30 13.5-30 30s13.5 30 30 30 30-13.5 30-30-13.5-30-30-30zm0 0" fill="#ffd400"/><path d="m131.605469 140.394531c-5.859375-5.859375-15.351563-5.859375-21.210938 0l-49.394531 49.394531v66.210938c0 8.289062 6.710938 15 15 15h53.789062l75-45-8.789062-21.210938zm0 0" fill="#00b44b"/><path d="m331 317c0 8.402344-6.597656 15-15 15h-180c-8.402344 0-15-6.597656-15-15s6.597656-15 15-15h180c8.402344 0 15 6.597656 15 15zm0 0" fill="#d2c5c2"/><path d="m91 317c0 8.285156-6.714844 15-15 15s-15-6.714844-15-15 6.714844-15 15-15 15 6.714844 15 15zm0 0" fill="#68544f"/><path d="m241 377c0 8.402344-6.597656 15-15 15h-90c-8.402344 0-15-6.597656-15-15s6.597656-15 15-15h90c8.402344 0 15 6.597656 15 15zm0 0" fill="#d2c5c2"/><path d="m91 377c0 8.285156-6.714844 15-15 15s-15-6.714844-15-15 6.714844-15 15-15 15 6.714844 15 15zm0 0" fill="#68544f"/><path d="m241 437c0 8.402344-6.597656 15-15 15h-90c-8.402344 0-15-6.597656-15-15s6.597656-15 15-15h90c8.402344 0 15 6.597656 15 15zm0 0" fill="#d2c5c2"/><path d="m91 437c0 8.285156-6.714844 15-15 15s-15-6.714844-15-15 6.714844-15 15-15 15 6.714844 15 15zm0 0" fill="#68544f"/><path d="m422 61h90v331h-90zm0 0" fill="#ff7816"/><path d="m467 61h45v331h-45zm0 0" fill="#dd3400"/><g fill="#c4b3af"><path d="m241 437c0 8.402344-6.597656 15-15 15h-30v-30h30c8.402344 0 15 6.597656 15 15zm0 0"/><path d="m241 377c0 8.402344-6.597656 15-15 15h-30v-30h30c8.402344 0 15 6.597656 15 15zm0 0"/><path d="m331 317c0 8.402344-6.597656 15-15 15h-120v-30h120c8.402344 0 15 6.597656 15 15zm0 0"/></g><path d="m196 166v-60c16.5 0 30 13.5 30 30s-13.5 30-30 30zm0 0" fill="#fdbf00"/><path d="m331 189.699219v66.300781c0 8.402344-6.597656 15-15 15h-186.300781l66.300781-66 64.5-64.5c5.699219-6 15.300781-6 21 0zm0 0" fill="#70da40"/><path d="m331 189.699219v66.300781c0 8.402344-6.597656 15-15 15h-120v-66l64.5-64.5c5.699219-6 15.300781-6 21 0zm0 0" fill="#56c225"/></svg>