<?xml version="1.0" encoding="iso-8859-1"?>
<!-- Generator: Adobe Illustrator 19.0.0, SVG Export Plug-In . SVG Version: 6.00 Build 0)  -->
<svg version="1.1" id="Layer_1" xmlns="http://www.w3.org/2000/svg" xmlns:xlink="http://www.w3.org/1999/xlink" x="0px" y="0px"
	 viewBox="0 0 512 512" style="enable-background:new 0 0 512 512;" xml:space="preserve">
<path style="fill:#EFEFEF;" d="M448,0H64v512h384V0z M104,44.888h53.336v32H104V44.888z M405.328,466.216H106.664v-10.664h298.664
	V466.216z M405.328,444.888H106.664v-10.664h298.664V444.888z M405.328,423.552H106.664v-10.664h298.664V423.552z M405.328,380.888
	H106.664v-10.664h298.664V380.888z M408,322.216c0,8.8-7.2,16-16,16H272.024h-24.76H120c-8.8,0-16-7.2-16-16V124.888
	c0-8.8,7.2-16,16-16h272c8.8,0,16,7.2,16,16V322.216z M408,76.888H189.336v-32H408V76.888z"/>
<rect x="106.664" y="370.224" style="fill:#2D2D2D;" width="298.64" height="10.664"/>
<g>
	<rect x="106.664" y="412.888" style="fill:#C9C9C9;" width="298.64" height="10.664"/>
	<rect x="106.664" y="434.224" style="fill:#C9C9C9;" width="298.64" height="10.664"/>
	<rect x="106.664" y="455.552" style="fill:#C9C9C9;" width="298.64" height="10.664"/>
</g>
<g>
	<path style="fill:#DB2B42;" d="M344.176,179.224h-2.968v10.832c0.856,0.12,1.88,0.12,3.368,0.12c3.928,0,7.416-1.488,7.416-5.528
		C351.992,180.768,348.504,179.224,344.176,179.224z"/>
	<path style="fill:#DB2B42;" d="M392,108.888H120c-8.8,0-16,7.2-16,16v197.336c0,8.8,7.2,16,16,16h127.264V272.92l-26.544,27.064
		l-17.664-17.24l56.592-57.696l56.592,57.696l-17.664,17.24l-26.544-27.064v65.304H392c8.8,0,16-7.2,16-16V124.888
		C408,116.088,400.8,108.888,392,108.888z M133.368,196.784c-4.392,0-8.728-1.144-10.888-2.336l1.768-7.184
		c2.336,1.2,5.928,2.4,9.632,2.4c3.992,0,6.104-1.656,6.104-4.168c0-2.392-1.824-3.76-6.448-5.416
		c-6.384-2.224-10.536-5.76-10.536-11.344c0-6.552,5.472-11.568,14.528-11.568c4.336,0,7.52,0.904,9.808,1.936l-1.936,7.008
		c-1.536-0.744-4.272-1.824-8.04-1.824c-3.76,0-5.584,1.712-5.584,3.704c0,2.456,2.168,3.528,7.128,5.416
		c6.792,2.504,9.976,6.048,9.976,11.464C148.864,191.304,143.912,196.784,133.368,196.784z M184.64,179.336
		c0,11.856-5.984,17.504-16.024,17.504c-9.688,0-15.392-5.36-15.392-17.608v-21.44h8.728v22.12c0,6.616,2.504,9.976,6.952,9.976
		c4.56,0,7.072-3.192,7.072-9.976v-22.12h8.664V179.336z M215.208,193.136c-2.792,2.224-7.472,3.48-15.104,3.48
		c-4.28,0-7.472-0.28-9.408-0.568v-37.744c2.272-0.464,6.896-0.808,11.224-0.808c5.304,0,8.552,0.512,11.344,2.168
		c2.68,1.424,4.616,4.048,4.616,7.52c0,3.424-1.992,6.608-6.328,8.208v0.112c4.392,1.192,7.64,4.504,7.64,9.472
		C219.2,188.464,217.608,191.192,215.208,193.136z M233.072,196.784c-4.392,0-8.728-1.144-10.888-2.336l1.768-7.184
		c2.336,1.2,5.928,2.4,9.632,2.4c3.992,0,6.104-1.656,6.104-4.168c0-2.392-1.824-3.76-6.448-5.416
		c-6.384-2.224-10.536-5.76-10.536-11.344c0-6.552,5.472-11.568,14.528-11.568c4.336,0,7.52,0.904,9.808,1.936l-1.936,7.008
		c-1.536-0.744-4.272-1.824-8.04-1.824c-3.76,0-5.584,1.712-5.584,3.704c0,2.456,2.168,3.528,7.128,5.416
		c6.792,2.504,9.976,6.048,9.976,11.464C248.576,191.304,243.616,196.784,233.072,196.784z M272.664,189.6
		c2.624,0,5.528-0.568,7.24-1.256l1.312,6.784c-1.6,0.808-5.184,1.656-9.864,1.656c-13.28,0-20.128-8.264-20.128-19.208
		c0-13.112,9.352-20.408,20.984-20.408c4.496,0,7.92,0.904,9.464,1.712l-1.768,6.888c-1.768-0.736-4.216-1.424-7.296-1.424
		c-6.896,0-12.256,4.168-12.256,12.712C260.352,184.752,264.912,189.6,272.664,189.6z M305.576,196.208
		c-0.624-1.088-1.536-4.216-2.68-8.952c-1.024-4.792-2.68-6.096-6.208-6.16h-2.624v15.112h-8.6v-37.904
		c2.792-0.464,6.952-0.808,11.568-0.808c5.704,0,9.688,0.856,12.432,3.024c2.272,1.832,3.528,4.504,3.528,8.04
		c0,4.904-3.48,8.264-6.784,9.464v0.168c2.68,1.088,4.16,3.648,5.128,7.184c1.2,4.328,2.4,9.344,3.144,10.832H305.576z
		 M326.528,196.208h-8.72v-38.424h8.72V196.208z M357.112,193.136c-2.792,2.224-7.472,3.48-15.104,3.48
		c-4.28,0-7.472-0.28-9.408-0.568v-37.744c2.272-0.464,6.896-0.808,11.224-0.808c5.304,0,8.552,0.512,11.344,2.168
		c2.68,1.424,4.616,4.048,4.616,7.52c0,3.424-1.992,6.608-6.328,8.208v0.112c4.392,1.192,7.64,4.504,7.64,9.472
		C361.104,188.464,359.512,191.192,357.112,193.136z M390.088,196.208h-24.504v-38.424h23.712v7.128h-14.992v7.984h14.144v7.064
		h-14.144v9.128h15.792v7.12H390.088z"/>
	<path style="fill:#DB2B42;" d="M298,163.944c-2.112,0-3.304,0.168-3.936,0.28v10.608h3.424c4.336,0,6.896-2.168,6.896-5.528
		C304.384,165.768,301.992,164,298,163.944z"/>
	<path style="fill:#DB2B42;" d="M202.272,179.224h-2.968v10.832c0.856,0.12,1.88,0.12,3.368,0.12c3.928,0,7.416-1.488,7.416-5.528
		C210.08,180.768,206.6,179.224,202.272,179.224z"/>
	<path style="fill:#DB2B42;" d="M209.168,168.28c0-2.912-2.224-4.456-6.16-4.456c-1.88,0-2.968,0.12-3.712,0.232V173h2.848
		C206.72,173.008,209.168,171.128,209.168,168.28z"/>
	<path style="fill:#DB2B42;" d="M351.072,168.28c0-2.912-2.224-4.456-6.16-4.456c-1.88,0-2.968,0.12-3.712,0.232V173h2.848
		C348.624,173.008,351.072,171.128,351.072,168.28z"/>
	<rect x="104" y="44.888" style="fill:#DB2B42;" width="53.336" height="32"/>
</g>
<rect x="189.336" y="44.888" style="fill:#C9C9C9;" width="218.664" height="32"/>
<g>
	<path style="fill:#FFFFFF;" d="M138.888,173.408c-4.952-1.88-7.128-2.96-7.128-5.416c0-1.992,1.832-3.704,5.584-3.704
		c3.768,0,6.496,1.08,8.04,1.824l1.936-7.008c-2.28-1.032-5.472-1.936-9.808-1.936c-9.064,0-14.528,5.016-14.528,11.568
		c0,5.584,4.16,9.12,10.536,11.344c4.624,1.656,6.448,3.024,6.448,5.416c0,2.504-2.112,4.168-6.104,4.168
		c-3.704,0-7.296-1.192-9.632-2.4l-1.768,7.184c2.168,1.192,6.496,2.336,10.888,2.336c10.544,0,15.504-5.48,15.504-11.912
		C148.864,179.456,145.68,175.912,138.888,173.408z"/>
	<path style="fill:#FFFFFF;" d="M175.976,179.904c0,6.784-2.504,9.976-7.072,9.976c-4.448,0-6.952-3.36-6.952-9.976v-22.12h-8.728
		v21.44c0,12.248,5.704,17.608,15.392,17.608c10.04,0,16.024-5.64,16.024-17.504v-21.544h-8.664V179.904z"/>
	<path style="fill:#FFFFFF;" d="M211.56,175.512V175.4c4.336-1.6,6.328-4.792,6.328-8.208c0-3.48-1.936-6.104-4.616-7.52
		c-2.792-1.656-6.04-2.168-11.344-2.168c-4.328,0-8.952,0.344-11.224,0.808v37.736c1.936,0.288,5.128,0.568,9.408,0.568
		c7.632,0,12.312-1.248,15.104-3.48c2.4-1.936,3.992-4.672,3.992-8.152C219.2,180.024,215.952,176.712,211.56,175.512z
		 M199.304,164.064c0.744-0.12,1.832-0.232,3.712-0.232c3.928,0,6.16,1.536,6.16,4.456c0,2.84-2.456,4.728-7.016,4.728h-2.848
		v-8.952H199.304z M202.672,190.168c-1.488,0-2.504,0-3.368-0.12v-10.832h2.968c4.328,0,7.816,1.536,7.816,5.416
		C210.08,188.688,206.6,190.168,202.672,190.168z"/>
	<path style="fill:#FFFFFF;" d="M238.6,173.408c-4.952-1.88-7.128-2.96-7.128-5.416c0-1.992,1.832-3.704,5.584-3.704
		c3.768,0,6.496,1.08,8.04,1.824l1.936-7.008c-2.28-1.032-5.472-1.936-9.808-1.936c-9.064,0-14.528,5.016-14.528,11.568
		c0,5.584,4.16,9.12,10.536,11.344c4.624,1.656,6.448,3.024,6.448,5.416c0,2.504-2.112,4.168-6.104,4.168
		c-3.704,0-7.296-1.192-9.632-2.4l-1.768,7.184c2.168,1.192,6.496,2.336,10.888,2.336c10.536,0,15.504-5.48,15.504-11.912
		C248.576,179.456,245.392,175.912,238.6,173.408z"/>
	<path style="fill:#FFFFFF;" d="M272.608,164.344c3.08,0,5.528,0.688,7.296,1.424l1.768-6.888c-1.536-0.808-4.96-1.712-9.464-1.712
		c-11.632,0-20.984,7.296-20.984,20.408c0,10.944,6.84,19.208,20.128,19.208c4.68,0,8.264-0.848,9.864-1.656l-1.312-6.784
		c-1.712,0.688-4.616,1.256-7.24,1.256c-7.752,0-12.312-4.848-12.312-12.544C260.352,168.504,265.712,164.344,272.608,164.344z"/>
	<path style="fill:#FFFFFF;" d="M306.208,178.192v-0.168c3.304-1.192,6.784-4.552,6.784-9.464c0-3.528-1.256-6.208-3.528-8.04
		c-2.744-2.168-6.728-3.024-12.432-3.024c-4.616,0-8.784,0.344-11.568,0.808v37.904h8.6v-15.104h2.624
		c3.528,0.064,5.184,1.368,6.208,6.16c1.144,4.736,2.056,7.864,2.68,8.952h8.896c-0.744-1.488-1.936-6.496-3.144-10.832
		C310.368,181.84,308.888,179.28,306.208,178.192z M297.48,174.832h-3.424v-10.608c0.632-0.112,1.832-0.28,3.936-0.28
		c3.992,0.056,6.384,1.824,6.384,5.36C304.384,172.664,301.816,174.832,297.48,174.832z"/>
	<rect x="317.808" y="157.792" style="fill:#FFFFFF;" width="8.72" height="38.424"/>
	<path style="fill:#FFFFFF;" d="M353.464,175.512V175.4c4.336-1.6,6.328-4.792,6.328-8.208c0-3.48-1.936-6.104-4.616-7.52
		c-2.792-1.656-6.04-2.168-11.344-2.168c-4.328,0-8.952,0.344-11.224,0.808v37.736c1.936,0.288,5.128,0.568,9.408,0.568
		c7.632,0,12.312-1.248,15.104-3.48c2.4-1.936,3.992-4.672,3.992-8.152C361.104,180.024,357.856,176.712,353.464,175.512z
		 M341.208,164.064c0.744-0.12,1.832-0.232,3.712-0.232c3.928,0,6.16,1.536,6.16,4.456c0,2.84-2.456,4.728-7.016,4.728h-2.848
		v-8.952H341.208z M344.576,190.168c-1.488,0-2.504,0-3.368-0.12v-10.832h2.968c4.328,0,7.816,1.536,7.816,5.416
		C351.992,188.688,348.504,190.168,344.576,190.168z"/>
	<polygon style="fill:#FFFFFF;" points="374.304,179.96 388.44,179.96 388.44,172.896 374.304,172.896 374.304,164.912 
		389.296,164.912 389.296,157.792 365.584,157.792 365.584,196.208 390.088,196.208 390.088,189.088 374.304,189.088 	"/>
	<polygon style="fill:#FFFFFF;" points="298.568,299.976 316.24,282.736 259.648,225.04 203.056,282.736 220.728,299.976 
		247.264,272.912 247.264,338.216 272.024,338.216 272.024,272.912 	"/>
</g>
<g>
</g>
<g>
</g>
<g>
</g>
<g>
</g>
<g>
</g>
<g>
</g>
<g>
</g>
<g>
</g>
<g>
</g>
<g>
</g>
<g>
</g>
<g>
</g>
<g>
</g>
<g>
</g>
<g>
</g>
</svg>
